<?xml version="1.0" standalone="no"?>
<!DOCTYPE svg PUBLIC "-//W3C//DTD SVG 20010904//EN"
 "http://www.w3.org/TR/2001/REC-SVG-20010904/DTD/svg10.dtd">
<svg version="1.0" xmlns="http://www.w3.org/2000/svg"
 width="1200.000000pt" height="630.000000pt" viewBox="0 0 1200.000000 630.000000"
 preserveAspectRatio="xMidYMid meet">

<g transform="translate(0.000000,630.000000) scale(0.100000,-0.100000)"
fill="#000000" stroke="none">
<path d="M4915 4710 c-211 -35 -380 -179 -452 -383 -36 -102 -38 -252 -4 -352
33 -99 81 -173 157 -244 113 -106 234 -153 392 -153 152 0 206 29 166 90 -14
21 -21 23 -52 18 -182 -33 -321 5 -443 121 -64 61 -111 141 -134 228 -63 245
96 503 350 570 243 63 502 -93 565 -342 22 -85 24 -136 9 -203 -12 -54 -5 -87
21 -95 36 -11 59 4 71 48 16 58 15 201 -1 267 -31 130 -134 274 -248 348 -108
68 -274 103 -397 82z"/>
<path d="M6817 4685 c-165 -58 -288 -176 -353 -340 -25 -64 -28 -82 -29 -200
0 -137 8 -168 45 -180 11 -3 28 -2 37 4 16 8 18 26 18 153 l0 144 43 86 c54
110 130 183 237 227 314 131 655 -95 655 -434 0 -293 -261 -514 -549 -465 -84
14 -104 5 -99 -44 3 -26 9 -33 43 -44 49 -16 205 -18 266 -3 348 88 534 463
389 787 -68 151 -196 265 -354 313 -99 30 -255 28 -349 -4z"/>
<path d="M4931 4366 c-97 -32 -172 -151 -157 -248 15 -90 64 -150 166 -199
159 -77 348 -225 438 -344 99 -132 149 -301 138 -468 -8 -118 -20 -166 -73
-276 -40 -83 -58 -108 -147 -197 -104 -105 -229 -195 -361 -261 -90 -45 -120
-74 -145 -140 -25 -67 -25 -99 0 -166 49 -130 199 -187 321 -120 57 31 83 62
132 161 62 123 136 223 246 332 78 77 125 115 176 142 218 113 489 108 697
-13 139 -81 296 -262 395 -455 80 -154 143 -201 264 -192 109 8 199 98 207
207 8 116 -40 187 -172 253 -198 98 -395 267 -474 404 -118 204 -127 477 -23
683 80 158 272 332 483 438 99 49 130 75 161 132 49 89 33 195 -41 273 -29 31
-117 68 -162 68 -45 0 -133 -37 -162 -68 -14 -15 -46 -66 -71 -115 -75 -143
-136 -226 -247 -338 -93 -94 -116 -111 -200 -151 -111 -54 -158 -66 -277 -74
-323 -21 -598 169 -799 553 -25 48 -58 101 -73 116 -58 64 -158 89 -240 63z
m152 -112 c35 -25 60 -89 52 -131 -8 -46 -49 -91 -95 -104 -33 -10 -47 -9 -82
5 -52 20 -79 55 -85 110 -11 111 120 186 210 120z m1977 11 c47 -24 70 -62 70
-115 0 -132 -157 -188 -236 -84 -32 41 -36 109 -9 150 37 57 116 80 175 49z
m-1804 -292 c58 -85 169 -209 233 -259 289 -229 675 -242 981 -34 88 60 229
215 316 348 1 2 24 -19 51 -45 l50 -48 -66 -45 c-86 -59 -244 -211 -291 -280
-96 -142 -140 -286 -140 -462 0 -300 146 -549 441 -749 l60 -40 -25 -20 c-13
-10 -36 -33 -50 -49 l-25 -30 -40 59 c-61 90 -158 198 -230 258 -278 229 -681
246 -981 43 -69 -47 -221 -205 -280 -291 l-45 -66 -48 50 c-26 27 -47 50 -45
51 187 122 336 274 408 416 118 232 114 537 -11 758 -71 126 -185 246 -328
347 -35 24 -65 46 -67 48 -5 4 76 93 87 96 3 0 23 -25 45 -56z m-169 -1719
c99 -74 43 -234 -81 -234 -53 0 -85 17 -113 59 -64 94 20 224 132 204 17 -3
44 -16 62 -29z m1960 21 c12 -3 36 -22 52 -41 26 -29 31 -43 31 -86 0 -45 -4
-54 -39 -89 -35 -35 -44 -39 -89 -39 -43 0 -57 5 -86 31 -63 55 -66 137 -8
193 30 28 76 46 102 41 8 -2 25 -6 37 -10z"/>
<path d="M4879 2710 c-117 -30 -231 -99 -301 -182 -100 -119 -139 -225 -140
-373 -1 -236 124 -429 340 -526 187 -85 416 -54 581 77 97 78 172 192 200 308
16 64 15 222 -1 270 -16 48 -47 63 -79 37 -21 -17 -21 -20 -9 -90 49 -290
-171 -551 -465 -551 -278 0 -496 238 -471 514 15 164 112 303 264 378 l86 43
144 0 c142 0 145 0 153 23 10 27 -2 56 -28 67 -27 12 -233 15 -274 5z"/>
<path d="M6885 2713 c-45 -9 -65 -26 -65 -54 0 -15 6 -31 13 -36 6 -4 75 -7
152 -8 136 0 142 -1 208 -32 125 -59 229 -181 262 -308 78 -303 -145 -595
-455 -595 -185 0 -345 100 -428 269 l-37 75 -1 149 c0 150 -4 166 -40 167 -43
0 -63 -61 -64 -192 -1 -309 257 -568 564 -568 164 0 291 53 407 169 57 57 85
95 112 151 101 215 66 462 -91 632 -117 126 -260 189 -425 187 -51 -1 -101 -3
-112 -6z"/>
</g>
</svg>
